<?xml version="1.0" encoding="utf-8"?>
<!-- Generator: Adobe Illustrator 26.0.3, SVG Export Plug-In . SVG Version: 6.00 Build 0)  -->
<svg version="1.1" xmlns="http://www.w3.org/2000/svg" xmlns:xlink="http://www.w3.org/1999/xlink" x="0px" y="0px"
	 viewBox="0 0 297 149.9" style="enable-background:new 0 0 297 149.9;" xml:space="preserve">
<g id="Logo">
	<g id="Clear_x5F_Black">
		<path d="M142.4,109.3V99h-35.4V50.9H120v35.8h16.2V50.9h13.1v35.8h6.2v22.7H142.4z M160.5,99V50.9h21.7c10.7,0,17.9,7.2,17.9,16.9
			c0,9.6-7.2,16.8-17.9,16.8h-8.6V99H160.5z M173.6,72.9h7.9c3.1,0,5.5-2.4,5.5-5.2c0-2.8-2.4-5.2-5.5-5.2h-7.9V72.9z M205.2,99
			V50.9h21.7c11,0,16.8,5.8,16.8,12.7c0,4.9-3.2,8.9-6.9,10c3.7,1.2,9.4,5.2,9.4,12c0,7.2-6.2,13.4-17.5,13.4H205.2z M218.2,69.4
			h7.6c2.8,0,4.5-1.7,4.5-4.1c0-2.4-1.7-4.1-4.5-4.1h-7.6V69.4z M218.2,88.7h9.3c3.1,0,5.2-2.1,5.2-4.8s-2.1-4.8-5.2-4.8h-9.3V88.7z
			 M76.4,49.5c-14,0-25.5,11.4-25.5,25.5c0,14,11.4,25.4,25.5,25.4c14,0,25.5-11.4,25.5-25.4C101.8,60.8,90.4,49.5,76.4,49.5
			 M76.4,88.2c-7.3,0-13.2-6-13.2-13.2c0-7.3,5.9-13.3,13.2-13.3c7.3,0,13.2,6,13.2,13.3C89.6,82.2,83.7,88.2,76.4,88.2"/>
	</g>
</g>
<g id="Guide">
</g>
</svg>
